Format : AVI
Format/Info : Audio Video Interleave
Format profile : OpenDML
File size : 2.33 GiB
Duration : 1h 39mn
Overall bit rate : 3 372 Kbps
Writing application : VirtualDubMod 1.5.10.2 (build 2542/release)
Writing library : VirtualDub build 32839/release

Video
ID : 0
Format : MPEG-4 Visual
Format profile : Advanced Simple@L5
Format settings, BVOP : Yes
Format settings, QPel : No
Format settings, GMC : No warppoints
Format settings, Matrix : Custom
Codec ID : XVID
Codec ID/Hint : XviD
Duration : 1h 39mn
Bit rate : 2 913 Kbps
Width : 720 pixels
Height : 400 pixels
Display aspect ratio : 16:9
Frame rate : 23.976 fps
Color space : YUV
Chroma subsampling : 4:2:0
Bit depth : 8 bits
Scan type : Progressive
Bits/(Pixel*Frame) : 0.422
Stream size : 2.01 GiB (86%)
Writing library : XviD 1.2.1 (UTC 2008-12-04)

Audio
ID : 1
Format : AC-3
Format/Info : Audio Coding 3
Mode extension : CM (complete main)
Codec ID : 2000
Duration : 1h 39mn
Bit rate mode : Constant
Bit rate : 448 Kbps
Channel(s) : 6 channels
Channel positions : Front: L C R, Side: L R, LFE
Sampling rate : 48.0 KHz
Bit depth : 16 bits
Stream size : 317 MiB (13%)
Alignment : Split accross interleaves
Interleave, duration : 42 ms (1.00 video frame)
Interleave, preload duration : 500 ms




 
http://www.imdb.com/title/tt1116184/




89524873606771859129.png

Users: 7.3/10 (8,106 votes) 54 reviews | Critics: 118 reviews Metascore: 56/100 (based on 24 reviews from Metacritic.com)

Johnny Knoxville and company return for the third installment of their TV show spin-off, where dangerous stunts and explicit public displays rule.
Director:
Jeff Tremaine
Writer:
Preston Lacy
Stars:
Johnny Knoxville, Steve-O and Bam Margera



Source Used

Jackass 3 UNRATED 720p BluRay x264-TWiZTED -Thanks

Big file size for a non 720p but gotta try something abit different so gonna for a high bitrate ,high quality encode

Enjoy !





Greetz to Imagine ,Flawl3ss ,Santi ,Vision ,Kingdom, BDK, TOXiC, iNK, THC, Ez, Rx,



